<?xml version="1.0" standalone="no"?>
<!DOCTYPE svg PUBLIC "-//W3C//DTD SVG 20010904//EN"
 "http://www.w3.org/TR/2001/REC-SVG-20010904/DTD/svg10.dtd">
<svg version="1.0" xmlns="http://www.w3.org/2000/svg"
 width="248.000000pt" height="36.000000pt" viewBox="0 0 248.000000 36.000000"
 preserveAspectRatio="xMidYMid meet">

<g transform="translate(0.000000,36.000000) scale(0.100000,-0.100000)"
fill="#DC2E27" stroke="none">
<path d="M112 352 c-6 -5 -35 -80 -62 -168 -47 -147 -49 -160 -33 -171 24 -18
67 -16 91 5 13 11 38 74 68 170 40 129 46 155 33 163 -17 11 -79 12 -97 1z"/>
<path d="M362 348 c-12 -16 -102 -296 -102 -319 0 -19 56 -31 101 -22 31 6 32
8 96 233 17 57 22 65 46 68 22 3 29 -4 51 -46 25 -49 58 -69 86 -52 14 9 -52
125 -80 140 -28 15 -185 13 -198 -2z"/>
<path d="M766 347 c-11 -8 -32 -63 -55 -147 -21 -75 -44 -138 -53 -144 -24
-15 -46 0 -68 48 -21 43 -47 60 -76 49 -8 -3 -14 -8 -14 -12 0 -20 68 -117 90
-128 30 -15 154 -17 180 -3 13 7 35 59 70 167 48 147 50 158 34 170 -23 17
-85 17 -108 0z"/>
<path d="M1020 343 c-32 -16 -38 -27 -67 -113 -40 -123 -41 -151 -4 -192 l29
-33 200 0 c251 0 243 -4 288 147 35 114 34 145 -3 180 -24 22 -31 23 -216 26
-168 2 -196 0 -227 -15z m323 -65 l20 -27 -27 -85 c-33 -108 -44 -116 -153
-116 -72 0 -85 3 -103 22 -25 27 -25 44 1 130 30 102 40 109 151 106 85 -3 92
-5 111 -30z"/>
<path d="M1568 353 c-26 -7 -23 -32 29 -190 39 -121 51 -146 71 -154 30 -12
144 -12 174 0 15 6 56 64 121 171 102 168 109 195 50 174 -21 -7 -47 -43 -113
-157 -77 -133 -87 -148 -110 -145 -23 3 -28 14 -67 147 -23 79 -48 148 -55
152 -14 9 -70 10 -100 2z"/>
<path d="M2157 338 c-35 -33 -199 -308 -193 -323 3 -10 13 -11 33 -6 23 6 44
34 116 154 74 124 92 147 112 147 26 0 23 7 86 -213 18 -63 27 -81 46 -88 26
-10 100 -2 109 12 9 15 -95 327 -112 333 -9 3 -51 6 -94 6 -68 0 -82 -3 -103
-22z"/>
</g>
</svg>
